<?xml version="1.0" standalone="no"?>
<!DOCTYPE svg PUBLIC "-//W3C//DTD SVG 20010904//EN"
 "http://www.w3.org/TR/2001/REC-SVG-20010904/DTD/svg10.dtd">
<svg version="1.0" xmlns="http://www.w3.org/2000/svg"
 width="512.000000pt" height="512.000000pt" viewBox="0 0 512.000000 512.000000"
 preserveAspectRatio="xMidYMid meet">
<metadata>
Created by potrace 1.14, written by Peter Selinger 2001-2017
</metadata>
<g transform="translate(0.000000,512.000000) scale(0.100000,-0.100000)"
fill="#000000" stroke="none">
<path d="M4256 4568 c4 -11 1 -18 -6 -18 -6 0 -8 -5 -4 -12 4 -7 3 -8 -5 -4
-6 4 -9 11 -6 16 3 5 1 11 -5 15 -5 3 -10 1 -10 -4 0 -6 -7 -11 -16 -11 -9 0
-12 5 -8 12 4 7 3 8 -5 4 -6 -4 -8 -12 -5 -18 4 -6 -1 -8 -15 -3 -13 4 -21 2
-21 -5 0 -6 4 -9 9 -5 5 3 13 0 17 -6 4 -7 3 -9 -4 -5 -6 3 -13 2 -17 -4 -3
-5 -11 -10 -16 -10 -6 0 -8 4 -5 8 3 5 -1 9 -9 9 -10 0 -11 -5 -4 -19 6 -12 6
-18 -1 -18 -5 0 -10 5 -10 10 0 6 -4 10 -10 10 -12 0 -9 -22 5 -32 6 -4 0 -8
-13 -8 -20 0 -22 -2 -11 -22 11 -21 11 -22 -5 -9 -14 12 -19 12 -29 1 -9 -9
-9 -11 0 -6 6 3 14 2 17 -3 8 -12 -4 -41 -16 -41 -7 0 -6 5 1 13 8 10 7 14 -3
14 -14 0 -16 -21 -3 -33 10 -11 9 -26 -2 -20 -5 4 -4 -5 2 -18 7 -13 16 -22
21 -19 5 4 6 1 2 -6 -4 -6 -11 -9 -16 -6 -5 3 -11 1 -14 -4 -4 -5 -1 -13 5
-17 8 -5 9 -3 4 6 -5 8 -4 11 3 6 6 -4 8 -14 5 -23 -5 -12 -3 -14 8 -8 12 7
12 6 1 -7 -10 -13 -10 -17 4 -22 24 -9 31 -7 14 5 -12 8 -12 10 -1 7 13 -4 20
-21 23 -55 1 -10 4 -10 17 0 11 9 13 9 8 0 -5 -7 -1 -12 10 -12 47 -2 53 -4
42 -18 -14 -16 -23 -17 -13 -1 4 6 3 8 -4 4 -5 -3 -12 -1 -14 6 -3 9 -6 9 -12
0 -4 -7 -2 -12 4 -12 6 0 9 -4 6 -8 -2 -4 5 -9 17 -9 29 -2 49 -7 64 -16 8 -5
11 -3 8 5 -4 9 4 13 25 12 16 -1 31 -2 33 -4 9 -7 36 -6 31 1 -3 5 -10 6 -16
3 -7 -4 -8 -2 -4 5 4 6 18 9 31 7 17 -3 22 -1 18 10 -3 8 -8 12 -12 9 -4 -2
-8 3 -8 11 0 10 4 11 11 4 17 -17 49 -12 42 6 -6 15 -4 15 11 3 14 -12 16 -12
8 0 -6 11 -4 13 11 7 15 -6 14 -2 -6 20 -14 15 -20 24 -13 21 6 -4 13 -4 16 0
2 5 2 2 1 -5 -3 -9 1 -10 16 -2 22 12 26 36 8 43 -8 3 -7 6 4 6 9 1 19 5 22
10 4 5 -4 7 -16 3 -19 -5 -20 -4 -7 10 7 9 19 13 24 10 6 -3 4 2 -4 11 -18 22
-25 90 -8 80 9 -5 9 -3 0 9 -7 8 -10 17 -7 21 3 3 -3 3 -13 1 -11 -3 -25 2
-34 12 -9 11 -9 15 -1 10 6 -4 12 -2 12 3 0 6 -7 11 -16 11 -8 0 -13 4 -10 9
4 5 3 11 -2 13 -4 1 -17 16 -30 32 -12 16 -22 24 -22 17 0 -13 -21 -11 -33 4
-5 6 -7 4 -4 -5 2 -8 10 -14 16 -12 7 1 10 -2 6 -8 -7 -11 -28 1 -53 30 -10
13 -11 13 -6 -2z m95 -64 c-11 -17 -11 -17 -6 4 6 22 5 23 -17 12 -20 -10 -21
-10 -6 3 10 8 16 16 14 19 -1 3 4 0 12 -7 11 -10 12 -17 3 -31z m75 -100 c1
-9 0 -13 -4 -10 -3 4 -7 14 -8 22 -1 9 0 13 4 10 3 -4 7 -14 8 -22z m-206
-240 c0 -8 -19 -13 -24 -6 -3 5 1 9 9 9 8 0 15 -2 15 -3z"/>
<path d="M3930 4494 c-37 -10 -49 -21 -16 -15 5 1 4 -5 -4 -13 -7 -9 -9 -16
-6 -16 4 0 3 -8 -2 -17 -7 -11 -6 -21 4 -30 15 -15 38 -8 28 8 -3 5 -10 7 -15
4 -5 -4 -9 -1 -9 4 0 14 1 14 43 -4 47 -19 51 -19 30 3 -10 11 -20 18 -23 16
-3 -1 -6 6 -6 16 0 16 3 15 23 -6 23 -25 44 -34 24 -11 -8 10 -7 17 2 27 9 11
7 10 -7 0 -18 -14 -19 -13 -13 3 3 9 2 17 -3 17 -6 0 -10 4 -10 10 0 5 7 7 15
4 8 -4 15 -4 15 -1 0 12 -28 12 -70 1z"/>
<path d="M4416 4473 c-6 -14 -5 -15 5 -6 7 7 10 15 7 18 -3 3 -9 -2 -12 -12z"/>
<path d="M2355 4460 c-4 -6 -14 -9 -22 -5 -13 4 -14 3 -4 -9 10 -12 9 -14 -8
-9 -12 3 -18 10 -14 17 4 7 1 6 -9 -1 -8 -7 -18 -10 -21 -6 -4 3 -7 -1 -7 -10
0 -21 -17 -31 -26 -16 -4 7 -3 9 3 6 5 -3 10 0 10 8 0 11 -3 12 -14 3 -8 -6
-12 -17 -9 -24 3 -9 0 -11 -11 -7 -12 5 -14 3 -8 -7 5 -9 4 -11 -3 -6 -9 5 -7
15 4 34 12 19 12 22 1 10 -17 -21 -24 -22 -30 -5 -2 6 -2 2 -1 -10 2 -12 -1
-25 -8 -29 -7 -4 -8 -3 -4 4 5 8 -1 12 -14 12 -12 0 -19 -4 -16 -8 3 -5 -1 -9
-9 -9 -8 0 -12 4 -10 8 3 4 -2 9 -9 12 -10 4 -13 0 -11 -14 3 -15 1 -18 -8
-12 -7 5 -19 9 -27 8 -8 0 -19 4 -23 10 -5 6 -7 4 -4 -5 2 -8 9 -15 15 -15 5
0 14 -3 18 -7 3 -4 -4 -5 -17 -3 -13 3 -30 13 -37 22 -13 17 -13 17 -10 -2 2
-13 -2 -20 -13 -19 -12 1 -15 -5 -11 -20 4 -21 4 -21 -11 -1 -13 17 -18 18
-29 6 -8 -8 -8 -11 -1 -7 14 8 28 -10 14 -18 -5 -4 -17 4 -25 16 -9 12 -16 17
-16 10 0 -7 -4 -11 -9 -7 -5 3 -12 1 -15 -4 -4 -5 -1 -13 5 -17 7 -4 9 -3 6 3
-3 5 0 10 8 10 11 0 12 -4 4 -13 -8 -9 -18 -10 -35 -3 -36 13 -39 11 -15 -8
22 -18 22 -18 -18 -19 -22 0 -38 4 -34 9 3 5 -5 3 -18 -4 -13 -7 -28 -12 -32
-11 -5 1 -6 -2 -2 -8 3 -5 -1 -13 -9 -16 -9 -3 -13 -10 -10 -15 3 -5 10 -6 16
-3 7 5 8 2 4 -5 -6 -9 -13 -8 -29 6 -11 10 -17 13 -14 6 9 -14 -3 -23 -39 -29
-16 -3 -23 -1 -19 6 4 6 14 9 22 8 9 -2 18 4 20 12 3 9 1 11 -4 5 -4 -5 -14
-10 -22 -10 -7 0 -20 -10 -29 -23 -14 -21 -13 -22 4 -16 14 4 16 3 5 -4 -7 -5
-17 -15 -21 -22 -5 -8 -9 -7 -13 5 -5 10 -3 14 5 9 7 -5 8 -3 3 6 -6 10 -12 8
-26 -8 -21 -27 -31 -28 -22 -4 5 14 3 13 -10 -3 -9 -11 -17 -26 -17 -32 0 -7
-5 -13 -11 -13 -5 0 -7 6 -3 13 6 9 5 9 -8 0 -8 -7 -19 -9 -23 -5 -5 4 -5 1
-1 -6 4 -7 12 -9 18 -6 7 4 8 2 4 -4 -5 -9 -13 -9 -29 0 -20 10 -21 10 -8 -6
8 -9 11 -19 7 -23 -3 -3 -6 -2 -6 4 0 6 -7 14 -16 17 -15 6 -15 4 -1 -18 15
-23 15 -24 -5 -18 -16 4 -19 2 -13 -9 5 -8 -2 -5 -15 6 l-23 20 13 -25 c12
-23 12 -24 -4 -11 -9 8 -19 11 -23 7 -3 -3 -1 -6 5 -6 6 0 9 -7 6 -15 -6 -14
-8 -13 -20 2 -12 17 -13 16 -7 -4 3 -14 1 -23 -6 -23 -7 0 -10 -4 -6 -9 3 -5
0 -13 -6 -17 -8 -4 -9 -3 -5 4 4 7 3 12 -3 12 -6 0 -7 7 -4 17 4 11 3 14 -5 9
-7 -4 -10 -18 -8 -32 3 -16 1 -22 -6 -18 -8 5 -9 1 -5 -10 4 -10 3 -15 -4 -11
-5 4 -7 16 -4 28 5 19 4 18 -9 -3 -8 -14 -17 -23 -21 -22 -4 2 -10 0 -13 -4
-4 -4 -1 -4 6 0 15 9 16 -10 2 -19 -8 -5 -7 -12 2 -23 9 -11 5 -10 -17 4 -16
10 -26 14 -22 7 5 -7 -4 -18 -22 -29 -23 -14 -28 -21 -19 -31 6 -7 8 -16 4
-20 -3 -3 -6 -1 -6 5 0 18 -26 14 -41 -5 -12 -14 -12 -16 0 -9 9 6 12 5 9 -5
-3 -8 -11 -13 -18 -11 -8 2 -10 -3 -6 -14 5 -14 4 -15 -9 -4 -8 7 -12 17 -8
23 3 6 1 7 -6 3 -8 -5 -5 -16 11 -39 15 -21 17 -27 5 -18 -15 12 -18 10 -27
-13 -5 -14 -12 -26 -14 -26 -3 0 -3 6 0 13 3 8 -2 14 -11 14 -11 0 -13 -6 -9
-20 4 -13 2 -17 -5 -13 -6 4 -9 1 -5 -7 3 -8 -2 -20 -10 -27 -9 -7 -13 -16
-10 -21 3 -5 0 -9 -5 -9 -6 0 -11 5 -11 10 0 6 -5 10 -10 10 -7 0 -6 -8 1 -22
11 -20 10 -21 -2 -11 -10 8 -19 9 -29 1 -12 -8 -12 -9 3 -4 9 3 17 1 17 -4 0
-6 -4 -10 -10 -10 -5 0 -7 -7 -3 -16 5 -14 3 -15 -14 -6 -15 9 -20 8 -20 -3 0
-8 3 -12 7 -10 4 2 7 -2 7 -10 0 -10 -5 -11 -18 -4 -22 11 -39 12 -21 1 7 -5
15 -22 18 -38 3 -21 2 -25 -5 -14 -5 8 -7 19 -4 25 4 5 -2 3 -13 -6 -10 -9
-26 -14 -34 -11 -8 3 -4 -5 10 -17 l25 -22 -25 6 -25 6 25 -16 25 -15 -26 4
c-16 3 -26 0 -26 -7 1 -36 -4 -48 -15 -41 -10 6 -10 5 0 -8 10 -13 8 -19 -13
-41 -19 -18 -22 -27 -14 -33 7 -4 9 -3 6 3 -3 5 0 10 8 10 11 0 12 -4 4 -13
-8 -10 -16 -11 -33 -3 -17 10 -19 9 -8 -2 16 -17 15 -29 -2 -29 -8 0 -18 -5
-22 -12 -4 -6 -3 -8 3 -5 6 4 13 0 16 -7 4 -10 0 -14 -13 -11 -13 3 -17 -1
-13 -11 3 -7 10 -11 15 -8 6 4 5 -3 -1 -15 -7 -11 -14 -21 -17 -21 -3 0 -3 4
1 9 3 5 1 12 -4 15 -5 4 -8 -2 -6 -11 2 -10 4 -22 4 -26 1 -5 5 -6 10 -2 5 3
13 0 17 -6 4 -7 3 -9 -3 -6 -6 4 -18 -2 -28 -13 -9 -10 -24 -16 -33 -14 -10 3
-6 -2 8 -10 14 -8 20 -15 15 -16 -6 0 -11 -10 -12 -22 -1 -39 -14 -93 -24
-103 -7 -7 -7 -1 0 16 8 23 7 28 -11 32 -16 5 -18 3 -9 -6 15 -15 14 -27 -2
-23 -6 1 -8 1 -4 -2 4 -2 3 -9 -2 -16 -13 -16 -6 -52 10 -48 10 3 10 0 -1 -12
-7 -9 -9 -16 -4 -16 4 0 3 -5 -4 -12 -16 -16 -16 -72 0 -62 7 4 8 3 4 -5 -4
-6 -12 -9 -17 -6 -5 4 -12 -7 -15 -24 -4 -17 -10 -28 -15 -26 -4 3 -10 1 -14
-4 -3 -6 6 -8 22 -5 l28 4 -27 -15 c-33 -18 -36 -25 -8 -20 11 2 22 -1 26 -6
3 -5 2 -9 -3 -8 -39 7 -71 -28 -34 -38 19 -5 22 -25 7 -40 -4 -4 -6 -2 -4 6 1
7 -4 16 -12 18 -13 4 -13 3 0 -6 8 -6 11 -11 6 -11 -5 0 -3 -7 4 -16 8 -8 9
-14 4 -13 -21 4 -26 -2 -14 -16 7 -9 9 -22 5 -32 -14 -31 -11 -48 10 -61 20
-13 20 -13 -2 -9 -15 3 -20 1 -16 -9 3 -8 10 -11 16 -7 6 3 7 1 3 -6 -4 -6 -3
-18 3 -25 9 -10 8 -15 -3 -19 -10 -4 -13 -1 -10 7 3 8 1 16 -4 20 -5 3 -7 -5
-6 -17 1 -12 3 -26 3 -30 1 -5 5 -5 11 -2 6 3 7 -1 4 -9 -3 -9 -10 -13 -15
-10 -5 3 -6 -2 -3 -10 3 -9 11 -13 17 -9 5 3 7 1 3 -5 -3 -5 -3 -12 1 -15 5
-2 3 -2 -4 -1 -21 5 -24 -27 -3 -33 21 -6 18 -24 -3 -19 -7 1 -9 1 -4 -1 4 -3
4 -10 1 -15 -4 -6 -2 -8 4 -4 6 3 13 2 17 -4 4 -6 11 -7 17 -4 7 4 8 2 4 -5
-4 -6 -12 -9 -17 -6 -5 4 -17 2 -26 -4 -16 -8 -14 -10 10 -16 15 -4 28 -10 28
-14 6 -27 5 -52 -1 -56 -4 -2 -7 7 -6 22 1 30 -18 42 -28 17 -5 -14 -4 -15 9
-4 14 12 15 9 10 -18 -6 -35 9 -43 35 -19 9 7 8 4 -2 -8 -22 -27 -32 -65 -18
-65 6 0 9 4 6 9 -3 4 1 17 10 27 14 18 15 18 4 -3 -8 -17 -8 -23 0 -23 6 0 4
-7 -4 -16 -14 -14 -14 -34 0 -34 3 0 2 5 -1 10 -3 6 -1 10 4 10 15 0 14 -6 -5
-35 -10 -16 -22 -22 -37 -20 l-22 4 21 -17 c19 -16 19 -19 6 -32 -14 -13 -15
-12 -10 2 4 10 1 19 -7 22 -10 3 -12 0 -8 -11 5 -12 3 -14 -7 -8 -10 6 -12 4
-7 -8 4 -11 2 -14 -8 -10 -8 3 -13 9 -10 13 3 5 1 12 -5 15 -6 4 -10 3 -9 -2
4 -25 -2 -44 -13 -37 -7 4 -10 3 -5 -1 4 -5 0 -17 -10 -27 -9 -10 -12 -18 -7
-18 4 0 18 12 29 26 l21 26 1 -23 c2 -19 0 -20 -7 -9 -8 13 -10 13 -10 -1 0
-18 -25 -33 -50 -31 -10 1 -11 0 -2 -4 16 -7 16 -36 0 -53 -11 -11 -10 -13 5
-8 9 4 17 2 17 -3 0 -6 -8 -10 -17 -11 -12 0 -13 -2 -5 -6 9 -4 10 -8 2 -18
-8 -10 -6 -17 9 -27 23 -16 18 -30 -7 -20 -14 5 -15 4 -2 -10 11 -11 17 -12
22 -4 6 8 8 8 8 -1 0 -7 7 -10 18 -7 14 5 14 4 3 -4 -16 -11 -25 -46 -10 -36
5 3 6 10 3 16 -5 7 -2 8 5 4 7 -5 10 -15 7 -23 -4 -11 -2 -13 9 -9 8 3 15 1
15 -4 0 -5 8 -6 18 -3 15 6 15 5 3 -10 -12 -15 -12 -17 2 -11 12 4 15 1 12
-15 -5 -25 -2 -26 16 -4 12 14 12 16 0 8 -10 -5 -12 -4 -7 4 6 9 11 9 21 1 7
-6 20 -8 29 -4 9 3 16 2 16 -4 0 -6 -12 -9 -27 -7 -25 2 -26 2 -8 -11 16 -12
21 -12 35 1 20 18 31 19 28 3 -2 -7 4 -11 12 -9 8 2 21 4 28 4 7 0 11 6 8 13
-3 8 -1 16 5 19 5 4 8 1 7 -7 -2 -8 7 -13 24 -13 15 1 25 -1 23 -4 -3 -2 0
-10 6 -17 7 -8 6 -14 -2 -20 -7 -4 -9 -3 -5 4 3 6 2 13 -3 16 -13 8 -8 -19 7
-37 8 -9 21 -13 34 -9 19 5 20 4 7 -10 -7 -9 -17 -14 -21 -12 -4 2 -10 -1 -14
-8 -4 -7 -3 -10 1 -5 5 4 17 -1 27 -10 16 -15 22 -15 41 -4 15 9 19 10 10 1
-6 -7 -9 -18 -6 -26 3 -9 -2 -12 -17 -9 -13 2 -19 1 -16 -3 4 -4 11 -7 15 -7
3 0 17 -10 31 -23 15 -14 26 -18 31 -11 4 7 8 6 12 -4 9 -23 -4 -29 -25 -10
-23 21 -23 12 0 -15 15 -17 21 -19 32 -9 10 10 10 8 1 -10 -10 -19 -8 -24 11
-34 33 -18 48 -35 47 -56 0 -16 -1 -16 -9 2 -7 16 -9 17 -9 3 -1 -17 15 -32
34 -33 6 -1 9 -7 7 -14 -1 -7 2 -9 8 -6 8 5 6 13 -4 24 -9 10 -16 22 -16 27 0
4 7 -2 16 -14 8 -12 20 -19 26 -16 5 4 2 -6 -7 -20 -14 -21 -15 -26 -4 -24 8
2 13 -2 12 -7 -1 -6 7 -12 18 -12 10 -1 19 3 19 8 0 6 -4 8 -9 5 -5 -3 -15 2
-22 12 -13 15 -12 16 4 3 9 -7 17 -10 17 -6 0 4 7 2 15 -5 12 -10 13 -15 4
-21 -7 -4 -14 -15 -15 -23 -1 -9 2 -14 7 -10 5 3 9 1 9 -5 0 -6 11 -6 28 -1
27 7 29 6 28 -19 -1 -19 4 -26 16 -25 10 1 15 -2 12 -7 -3 -5 0 -9 5 -9 15 0
14 -27 -1 -33 -7 -3 -3 -4 9 -4 12 1 20 4 18 7 -2 4 2 7 9 7 8 0 12 -6 9 -13
-7 -18 18 -29 28 -13 5 8 9 9 9 4 0 -6 -5 -16 -11 -22 -7 -7 -6 -12 6 -17 10
-4 14 -2 9 6 -5 7 -3 8 5 4 7 -5 10 -14 7 -21 -3 -9 3 -12 20 -10 14 1 22 0
20 -3 -3 -2 2 -11 10 -19 8 -8 12 -18 9 -23 -3 -5 10 -6 27 -4 25 4 29 2 18
-5 -10 -7 -11 -11 -2 -11 6 0 12 -8 13 -17 1 -12 4 -10 9 7 8 24 8 24 9 3 1
-14 7 -23 17 -23 8 0 12 4 9 10 -3 5 -1 10 4 10 14 0 14 -6 0 -32 -8 -15 -8
-19 0 -13 7 4 18 1 26 -5 8 -7 21 -10 29 -7 17 7 56 -24 56 -44 0 -12 2 -12 9
-1 6 10 10 6 15 -14 5 -19 10 -24 15 -15 5 7 11 12 15 12 20 -3 26 0 20 12 -5
8 -2 7 9 -2 13 -10 14 -17 7 -26 -8 -10 -8 -15 1 -21 8 -4 9 -3 5 4 -4 7 -1
12 8 12 8 0 17 6 20 13 3 6 4 3 3 -8 -1 -11 -8 -25 -16 -31 -11 -9 -10 -11 7
-9 12 1 25 5 29 10 5 4 2 5 -6 0 -10 -6 -12 -4 -6 5 6 10 10 10 19 -2 12 -16
40 -12 30 4 -4 7 -2 8 5 4 9 -6 9 -11 -1 -24 -12 -14 -10 -14 11 -3 16 9 21 9
16 2 -8 -14 13 -43 25 -36 5 3 11 1 15 -4 3 -6 15 -7 29 -1 32 12 54 -3 36
-24 -11 -14 -10 -16 4 -10 9 3 16 14 16 23 0 13 2 14 9 1 6 -8 7 -19 4 -25 -4
-5 -3 -7 2 -3 4 4 15 2 23 -5 13 -10 14 -9 8 2 -6 9 -5 12 5 9 8 -3 13 -10 12
-15 -1 -6 8 -10 20 -9 12 1 26 -3 30 -9 5 -6 7 -4 4 5 -2 8 -11 14 -19 12 -9
-1 -19 5 -22 14 -5 14 -4 15 9 4 8 -7 15 -9 15 -5 0 4 6 2 13 -4 8 -6 18 -7
22 -3 5 4 5 1 1 -5 -4 -7 -2 -13 3 -13 6 0 11 8 11 18 0 14 2 15 10 2 5 -8 10
-12 10 -7 0 4 11 0 26 -9 14 -10 23 -23 20 -31 -3 -8 -1 -11 5 -8 5 4 7 16 4
28 -6 21 -5 21 9 4 8 -11 13 -28 11 -38 -2 -11 0 -17 5 -14 5 3 7 14 5 25 -2
13 0 18 7 14 5 -4 14 0 19 7 7 9 8 4 4 -16 -5 -28 -5 -28 6 -7 7 12 16 22 21
22 5 0 3 -10 -3 -23 -11 -21 -11 -21 7 -6 21 17 64 23 64 8 0 -5 -4 -8 -9 -6
-8 2 -11 -3 -11 -19 0 -4 6 -1 14 5 10 8 16 9 21 1 9 -14 27 -2 18 13 -3 7 4
3 16 -7 22 -20 22 -20 15 0 -4 10 -4 16 1 12 4 -4 14 -3 22 4 11 9 13 8 11 -3
-2 -9 4 -13 16 -11 10 2 16 -1 12 -6 -3 -5 1 -9 8 -9 8 0 12 6 9 14 -4 9 0 11
11 7 9 -3 14 -9 12 -13 -6 -8 81 -7 90 1 3 4 -6 5 -20 4 -14 -2 -23 1 -20 6 3
5 12 7 19 4 7 -2 16 -2 19 2 11 10 37 11 30 1 -3 -5 -10 -7 -15 -4 -5 4 -9 4
-9 1 0 -3 10 -10 21 -17 12 -6 19 -7 15 -1 -3 5 1 13 10 16 8 3 12 2 9 -3 -3
-5 8 -8 25 -6 21 3 28 1 24 -7 -5 -7 -3 -8 5 -4 7 5 10 14 7 22 -3 8 -3 14 0
14 2 0 9 -10 14 -22 l9 -23 0 23 c1 13 5 20 11 17 6 -4 8 -10 5 -15 -6 -10 28
-5 45 5 6 4 17 2 25 -5 11 -9 12 -7 8 9 -4 16 -9 18 -23 11 -9 -5 -20 -6 -24
-3 -3 3 -6 1 -6 -6 0 -7 -4 -9 -10 -6 -16 10 -12 22 8 22 36 0 41 3 36 21 -5
14 -4 14 4 3 15 -21 45 -24 38 -4 -6 13 -4 14 9 3 12 -10 13 -15 3 -21 -6 -4
-16 -5 -20 -3 -15 9 -8 -3 9 -17 14 -12 16 -12 8 0 -6 11 -4 13 9 8 10 -4 15
-3 11 3 -3 6 -2 10 4 10 6 0 7 8 4 17 -6 15 -5 16 9 3 9 -8 13 -19 10 -24 -3
-5 0 -6 7 -2 6 4 9 12 6 17 -4 5 -3 9 2 10 4 0 18 2 31 5 12 2 22 0 22 -5 0
-6 -9 -8 -20 -6 -11 2 -18 0 -15 -5 4 -7 26 -7 45 0 3 1 12 3 20 4 8 0 14 9
12 19 -2 10 2 16 10 15 6 -2 12 2 13 9 0 6 3 14 7 18 8 9 5 -16 -5 -32 -5 -8
-1 -11 13 -10 11 1 20 4 20 8 0 4 9 9 21 12 12 3 18 10 15 15 -3 6 2 9 11 7
10 -1 17 -10 17 -19 -1 -8 3 -13 8 -10 5 4 8 14 5 24 -3 13 0 16 14 13 15 -4
18 -2 12 13 -6 16 -5 17 9 4 8 -8 13 -21 10 -29 -3 -8 4 -5 17 8 12 12 26 19
30 16 5 -2 12 2 15 10 4 13 2 14 -14 5 -11 -6 -20 -7 -20 -3 0 4 -4 2 -9 -6
-5 -7 -11 -9 -14 -5 -3 5 1 15 9 22 9 8 14 9 14 2 0 -7 6 -8 19 -1 10 6 21 7
25 4 11 -12 36 -12 29 0 -4 7 0 8 11 4 11 -4 15 -3 11 4 -4 6 1 9 11 7 13 -2
18 2 16 14 -2 12 3 15 18 11 15 -4 20 0 21 13 0 12 3 14 6 6 4 -10 9 -8 20 8
12 18 17 19 31 8 13 -11 14 -11 7 1 -6 11 -4 13 8 8 11 -4 14 -2 11 7 -7 18
12 30 22 15 5 -8 3 -9 -6 -4 -9 5 -11 4 -6 -3 5 -9 14 -7 31 5 14 10 25 22 25
27 0 5 -8 2 -18 -7 -15 -14 -19 -15 -19 -2 0 8 4 12 8 9 4 -2 9 2 12 8 3 10 8
9 22 -2 11 -9 16 -10 11 -2 -4 7 -2 12 4 12 6 0 9 4 5 9 -3 5 0 13 6 17 7 4 9
3 5 -4 -4 -6 1 -10 13 -9 15 1 17 5 10 18 -7 14 -5 16 13 11 14 -3 19 -1 14 6
-4 7 -3 12 2 12 5 0 14 10 20 22 l10 23 -1 -22 c-1 -13 -5 -23 -9 -23 -4 0 -8
-4 -8 -10 0 -33 32 9 35 45 0 6 11 9 25 7 20 -2 22 -1 10 8 -12 9 -9 11 13 7
15 -2 26 -2 23 1 -3 2 1 11 9 19 18 18 20 37 3 27 -9 -5 -9 -2 1 9 16 20 22
22 18 6 -1 -6 4 -14 12 -17 8 -3 11 0 7 7 -4 6 -2 11 5 11 7 0 5 8 -7 22 l-19
21 30 -19 30 -18 -20 24 c-17 22 -18 23 -1 10 16 -13 20 -12 32 5 12 16 14 16
14 3 0 -9 4 -19 10 -23 5 -3 5 7 -1 25 -6 17 -16 27 -22 23 -6 -3 -7 -1 -3 6
4 6 11 9 16 6 5 -3 11 -1 15 5 10 16 25 12 26 -7 0 -15 2 -15 9 2 5 13 2 27
-8 40 -10 12 -11 15 -2 8 21 -19 32 -16 25 7 -5 14 -2 20 10 20 12 0 15 6 10
23 -5 18 -4 19 5 5 12 -19 3 -51 -13 -41 -6 4 -7 1 -2 -7 13 -21 36 19 31 57
-2 18 1 30 6 27 5 -3 7 -13 6 -21 -2 -9 3 -18 10 -20 8 -3 10 1 5 13 -5 13 -3
15 8 9 12 -7 12 -6 1 7 -9 11 -10 18 -2 23 6 3 8 10 6 14 -3 4 0 13 6 21 8 12
9 11 4 -3 -4 -11 -2 -17 5 -15 6 2 11 8 11 13 0 6 12 16 27 23 14 7 19 10 10
8 -9 -2 -16 2 -16 9 0 7 8 12 19 10 15 -3 16 0 9 14 -7 13 -6 18 4 18 8 0 11
-5 8 -10 -3 -6 -1 -7 6 -3 9 6 9 11 -1 24 -10 12 -10 14 0 8 7 -4 12 -1 12 8
0 14 11 20 31 18 4 -1 4 8 1 20 -4 16 -2 19 8 13 9 -5 11 -4 6 3 -4 7 -2 12 4
12 6 0 8 5 4 12 -5 7 -2 9 8 6 18 -7 18 30 -1 41 -10 6 -9 10 4 14 9 4 14 3
11 -2 -3 -5 1 -12 10 -15 8 -3 12 -2 9 4 -3 6 0 10 7 10 9 0 9 3 -2 10 -13 8
-13 11 -1 22 8 7 11 8 8 2 -3 -6 0 -11 7 -11 15 0 15 21 1 34 -4 4 -5 2 -1 -4
5 -9 2 -11 -10 -6 -11 4 -13 8 -6 11 7 2 10 8 7 12 -3 5 3 7 15 5 11 -2 19 1
17 8 -1 6 3 11 10 12 6 0 15 4 20 9 5 5 3 6 -4 2 -7 -4 -13 -2 -13 4 0 6 -6 8
-12 4 -8 -4 -10 -3 -5 2 5 5 14 9 20 9 7 0 12 6 12 13 0 7 7 17 15 22 11 7 11
10 2 10 -7 0 -10 5 -7 10 3 6 -1 13 -10 16 -13 6 -14 8 -3 15 7 5 13 13 13 19
0 5 3 10 8 10 4 0 10 0 13 0 4 0 1 -7 -6 -15 -8 -9 -8 -15 -2 -15 15 0 21 22
10 43 -6 12 -5 19 7 23 8 3 15 13 15 21 0 8 5 11 12 7 7 -4 8 -3 4 5 -4 6 -11
9 -16 6 -4 -3 -10 2 -13 10 -4 10 -1 12 10 8 13 -5 15 -2 9 13 -14 34 -15 53
-4 60 7 5 8 2 3 -6 -5 -8 -3 -11 6 -8 8 3 13 17 13 31 -1 15 2 25 6 22 10 -6
6 -36 -9 -63 -7 -13 -10 -27 -6 -30 3 -3 8 4 12 16 3 12 9 19 14 17 4 -3 6 6
3 21 -3 19 -1 24 8 18 10 -6 11 -5 1 7 -10 12 -10 18 0 28 9 10 9 11 -5 6 -17
-7 -20 17 -3 32 4 4 5 2 1 -4 -5 -9 -2 -11 9 -7 14 6 14 8 -2 21 -17 14 -17
14 0 9 23 -7 22 2 -4 23 -20 16 -20 17 -3 31 11 9 15 10 10 3 -4 -7 -2 -13 3
-13 14 0 14 17 1 25 -15 9 -1 27 16 21 16 -6 29 10 15 19 -5 3 -8 14 -6 25 2
12 0 18 -5 15 -6 -3 -7 1 -4 9 3 9 11 13 16 10 6 -4 5 2 -1 14 -8 15 -8 23 1
28 6 4 8 3 4 -4 -3 -6 -3 -13 2 -16 4 -2 8 6 8 19 0 13 -4 21 -8 19 -4 -3 -6
5 -4 18 3 13 5 23 6 23 1 0 3 8 5 17 2 11 -2 15 -11 11 -10 -4 -12 0 -8 11 3
9 11 13 16 10 6 -4 2 6 -8 22 -11 15 -14 25 -7 21 6 -4 14 -3 18 3 3 5 -1 10
-10 10 -12 0 -14 4 -5 19 8 15 6 24 -8 37 -16 17 -16 17 0 11 10 -3 20 -2 23
3 4 6 0 10 -7 10 -10 0 -12 11 -10 40 3 27 8 38 16 33 6 -4 5 1 -3 10 -7 9
-10 17 -6 17 4 0 2 6 -4 14 -8 10 -9 21 -3 33 11 21 5 46 -9 37 -5 -3 -9 0 -9
6 0 6 -5 8 -12 4 -9 -5 -9 -2 1 9 14 17 26 24 17 9 -2 -4 4 -8 14 -9 18 -2 18
-1 -1 18 -21 21 -25 39 -7 39 18 0 3 10 -22 15 -12 2 -25 7 -29 11 -3 4 1 5
11 1 26 -9 31 6 6 21 -13 7 -15 11 -6 8 10 -3 20 0 24 6 4 7 3 8 -4 4 -7 -4
-12 -2 -12 4 0 6 -5 8 -12 4 -9 -5 -9 -3 1 9 7 9 18 14 23 11 6 -4 5 3 -1 15
-7 11 -17 21 -24 21 -8 0 -7 -4 3 -10 8 -5 11 -12 7 -17 -11 -11 -24 14 -21
40 1 12 3 28 3 35 1 7 6 10 13 6 7 -4 8 -3 4 5 -4 6 -11 9 -16 6 -5 -3 -16 8
-25 24 -9 19 -11 32 -5 36 6 3 10 12 10 18 0 7 -4 6 -10 -3 -8 -12 -10 -11
-10 7 0 12 3 23 8 26 4 2 1 2 -5 1 -7 -2 -13 1 -13 6 0 6 5 10 12 10 6 0 8 3
4 7 -4 5 -14 -1 -23 -12 -15 -19 -15 -19 -8 5 7 22 6 23 -9 11 -14 -12 -16
-12 -10 3 4 11 13 15 26 10 15 -4 19 -2 16 7 -3 8 -17 13 -34 12 -16 0 -23 1
-16 4 10 4 10 8 1 19 -14 17 2 19 21 2 8 -7 7 -4 -3 8 -9 11 -14 24 -10 29 5
4 0 5 -9 2 -10 -3 -20 -1 -24 5 -4 6 -3 8 3 5 6 -4 17 1 24 10 12 14 11 15 -9
8 -21 -6 -23 -5 -13 12 8 15 7 20 -4 20 -8 0 -12 -4 -9 -8 2 -4 0 -10 -5 -13
-10 -7 -9 19 1 30 7 7 -11 45 -27 56 -5 4 -13 4 -19 1 -5 -3 -6 -1 -2 6 4 6
12 8 18 5 7 -4 8 -2 4 4 -4 7 -13 12 -20 12 -7 0 -19 12 -27 28 -22 44 -22 49
1 15 24 -37 37 -44 20 -13 -6 11 -8 25 -5 30 4 6 3 10 -2 9 -20 -4 -24 2 -12
18 8 9 9 14 2 10 -6 -4 -13 -4 -16 0 -2 5 -2 2 -1 -4 2 -7 -4 -13 -12 -13 -11
0 -13 6 -9 21 5 16 4 19 -5 14 -9 -5 -10 -1 -5 15 5 14 3 20 -3 16 -6 -3 -13
0 -15 6 -4 10 -8 9 -17 -2 -9 -13 -10 -12 -8 5 2 12 -2 19 -10 17 -8 -1 -11 2
-7 9 5 8 10 8 18 0 6 -6 16 -11 21 -11 6 0 3 5 -7 11 -15 9 -16 13 -6 25 10
12 10 15 -2 12 -8 -2 -13 3 -11 10 1 8 -2 11 -8 7 -8 -5 -7 -11 1 -21 7 -9 8
-14 1 -14 -6 0 -14 9 -17 20 -4 11 -11 17 -17 14 -7 -5 -9 2 -6 19 3 17 0 28
-9 31 -8 3 -11 2 -8 -3 3 -5 2 -12 -3 -15 -13 -8 -11 28 2 37 7 6 4 7 -6 3
-12 -3 -18 0 -18 10 0 8 -4 12 -10 9 -5 -3 -10 0 -10 7 0 9 -3 9 -10 -2 -5 -8
-10 -10 -10 -5 0 6 4 15 9 20 6 6 4 18 -6 30 -11 14 -14 15 -10 3 4 -10 -1
-18 -12 -21 -12 -3 -18 1 -17 12 0 9 -5 15 -12 13 -9 -2 -11 2 -6 10 14 22 13
37 -2 31 -8 -3 -11 -10 -8 -15 4 -6 -3 -5 -15 1 -24 13 -29 23 -7 15 18 -7 27
8 15 26 -5 8 -9 10 -9 5 0 -6 -10 -11 -21 -12 -19 -2 -20 -1 -5 10 16 12 16
14 -4 32 -12 11 -27 20 -33 21 -40 4 -40 4 -27 19 7 8 9 15 4 16 -30 2 -49 9
-52 19 -2 5 -8 8 -13 4 -5 -3 -9 2 -9 11 0 10 -5 13 -12 9 -8 -5 -9 -2 -5 9 3
9 1 19 -5 23 -6 4 -8 3 -5 -3 8 -12 -20 -39 -30 -29 -3 3 -1 6 5 6 7 0 12 7
12 15 0 8 -5 15 -11 15 -5 0 -7 6 -3 13 5 8 2 8 -9 -2 -13 -10 -17 -10 -17 -1
0 10 -3 10 -15 0 -8 -7 -15 -8 -15 -3 0 6 10 14 22 20 l22 10 -22 5 c-12 4
-20 3 -18 -1 3 -4 -4 -7 -14 -7 -18 0 -18 1 -2 20 16 18 16 18 -5 7 -13 -6
-23 -8 -23 -4 0 4 -5 1 -11 -7 -9 -13 -9 -13 -7 0 2 9 -1 15 -7 15 -5 0 -9 -4
-7 -8 1 -5 -2 -5 -8 -2 -6 4 -9 10 -6 13 3 3 -2 14 -11 25 -10 11 -12 17 -5
13 6 -4 12 -2 12 3 0 14 -17 14 -25 1 -5 -8 -11 -8 -19 -1 -9 7 -17 7 -26 -2
-9 -8 -11 -8 -6 0 3 6 -1 18 -9 26 -21 22 -19 29 4 15 11 -7 17 -17 14 -23 -4
-5 -3 -7 2 -3 4 4 15 2 24 -5 9 -7 7 -2 -4 14 -11 15 -23 25 -27 23 -3 -2 -8
1 -10 8 -3 9 -12 8 -32 -6 -16 -10 -25 -12 -21 -5 6 9 3 11 -8 6 -10 -4 -16
-2 -14 6 1 7 -4 11 -11 9 -8 -1 -11 2 -7 8 5 7 11 8 19 1 8 -7 12 -5 12 9 0
14 -4 16 -16 10 -19 -10 -53 7 -44 22 4 7 2 8 -4 4 -9 -5 -9 -13 -2 -27 6 -10
7 -19 3 -19 -5 0 -13 10 -18 22 -6 12 -18 23 -28 24 -9 1 -15 -2 -11 -7 3 -5
10 -6 16 -3 7 4 8 2 4 -5 -12 -19 -37 8 -31 33 3 12 2 15 -1 9 -3 -7 -12 -13
-20 -13 -8 0 -14 -5 -14 -12 0 -6 -3 -8 -6 -5 -4 4 -2 13 5 21 9 11 8 15 -4
20 -9 3 -14 2 -11 -3 7 -10 -19 -23 -28 -13 -8 7 -33 13 -63 16 -14 0 -18 5
-12 11 19 19 8 27 -13 9 l-22 -19 19 30 c15 25 16 28 2 16 -11 -9 -17 -9 -17
-2 0 6 -10 9 -22 7 -13 -2 -28 1 -35 6 -7 6 -14 5 -19 -3 -4 -8 -3 -9 4 -5 7
4 12 3 12 -3 0 -5 -9 -9 -20 -8 -11 1 -19 7 -17 16 1 7 -4 15 -11 17 -7 1 -8
0 -2 -3 15 -7 2 -23 -15 -17 -8 4 -13 9 -10 13 5 9 -32 7 -41 -2 -14 -13 -24
-7 -24 16 0 17 -2 19 -9 7 -6 -8 -7 -18 -4 -23 3 -5 -3 -4 -14 1 -12 7 -25 7
-38 1 -19 -10 -19 -10 -2 4 12 10 14 17 7 22 -5 3 -7 12 -3 18 4 7 0 6 -10 -2
-20 -16 -23 -25 -4 -15 9 5 9 3 -1 -7 -11 -12 -14 -12 -22 1 -9 13 -11 13 -20
0 -9 -13 -10 -12 -8 4 4 25 -29 30 -42 6 -6 -11 -17 -17 -25 -14 -8 4 -12 11
-9 16 4 6 10 5 16 -3 8 -12 9 -12 6 0 -2 8 -12 15 -21 17 -10 1 -14 -2 -11 -8
5 -7 -2 -9 -20 -4 -15 4 -25 3 -23 -1 4 -7 -28 -8 -76 -4 -5 1 -5 5 -2 11 3 6
-1 7 -9 4 -9 -3 -13 -10 -10 -15 3 -5 -2 -6 -10 -3 -9 3 -13 11 -9 18 4 6 -1
5 -10 -3 -9 -7 -14 -18 -10 -25 3 -6 -3 -3 -15 7 -11 11 -25 16 -31 13 -5 -4
-12 -2 -16 4 -9 14 -27 1 -18 -13 3 -7 -3 -4 -14 6 -15 13 -23 15 -28 7z m19
-9 c3 -5 -1 -14 -8 -20 -12 -10 -14 -9 -11 6 2 10 4 19 4 21 2 5 10 2 15 -7z
m44 -16 c-3 -3 -9 2 -12 12 -6 14 -5 15 5 6 7 -7 10 -15 7 -18z m322 20 c0 -2
-7 -8 -15 -15 -12 -10 -15 -10 -15 2 0 8 7 15 15 15 8 0 15 -1 15 -2z m-429
-32 c11 -15 11 -16 0 -6 -11 9 -18 7 -33 -10 l-19 -22 17 28 c19 32 18 32 35
10z m722 -38 c-3 -9 -8 -14 -10 -11 -3 3 -2 9 2 15 9 16 15 13 8 -4z m31 6 c3
-5 -1 -11 -9 -14 -9 -4 -12 -1 -8 9 6 16 10 17 17 5z m-1028 -23 c4 -7 3 -8
-4 -4 -7 4 -12 0 -12 -10 0 -10 -3 -15 -6 -11 -7 6 2 37 10 37 3 0 8 -5 12
-12z m-221 -78 c3 -6 -1 -7 -9 -4 -9 3 -16 1 -16 -5 0 -6 -5 -11 -11 -11 -8 0
-8 5 1 15 14 17 26 19 35 5z m-370 -240 c3 -5 1 -10 -4 -10 -6 0 -11 5 -11 10
0 6 2 10 4 10 3 0 8 -4 11 -10z m2421 -118 c-6 -5 -36 23 -36 34 0 4 9 -1 20
-11 11 -10 18 -20 16 -23z m-2619 -27 c0 -8 -4 -12 -9 -9 -5 3 -6 10 -3 15 9
13 12 11 12 -6z m2763 -146 c0 -6 -4 -7 -10 -4 -5 3 -10 11 -10 16 0 6 5 7 10
4 6 -3 10 -11 10 -16z m-3050 -199 c0 -5 -5 -10 -11 -10 -5 0 -7 5 -4 10 3 6
8 10 11 10 2 0 4 -4 4 -10z m-35 -81 c-3 -12 -7 -24 -10 -27 -3 -3 -3 5 -1 19
6 30 5 29 10 29 3 0 3 -10 1 -21z m3325 -79 c0 -5 -5 -10 -11 -10 -5 0 -7 5
-4 10 3 6 8 10 11 10 2 0 4 -4 4 -10z m-3389 -73 c-10 -9 -11 -8 -5 6 3 10 9
15 12 12 3 -3 0 -11 -7 -18z m3519 -253 c0 -2 -7 -4 -15 -4 -8 0 -15 4 -15 10
0 5 7 7 15 4 8 -4 15 -8 15 -10z m-3646 -40 c3 -8 2 -12 -4 -9 -6 3 -10 10
-10 16 0 14 7 11 14 -7z m3693 -161 c1 -26 0 -27 -13 -8 -11 15 -11 20 -1 27
6 4 12 8 12 8 0 0 1 -12 2 -27z m-3742 -103 c-3 -5 -11 -10 -16 -10 -6 0 -7 5
-4 10 3 6 11 10 16 10 6 0 7 -4 4 -10z m3742 -12 c-3 -8 -6 -5 -6 6 -1 11 2
17 5 13 3 -3 4 -12 1 -19z m19 -33 c-1 -8 -5 -17 -8 -21 -5 -4 -4 16 1 34 3 9
9 -1 7 -13z m-3761 -53 c-3 -3 -11 0 -18 7 -9 10 -8 11 6 5 10 -3 15 -9 12
-12z m5 -36 c0 -2 -7 -7 -16 -10 -8 -3 -12 -2 -9 4 6 10 25 14 25 6z m3761
-189 c-6 -8 -7 -18 -3 -22 4 -5 1 -5 -6 -1 -10 6 -10 11 -1 22 6 8 14 14 16
14 3 0 0 -6 -6 -13z m-6 -47 c3 -5 1 -10 -4 -10 -6 0 -11 5 -11 10 0 6 2 10 4
10 3 0 8 -4 11 -10z m-15 -45 c0 -8 -2 -15 -4 -15 -2 0 -6 7 -10 15 -3 8 -1
15 4 15 6 0 10 -7 10 -15z m20 -81 c0 -2 -9 0 -20 6 -11 6 -20 13 -20 16 0 2
9 0 20 -6 11 -6 20 -13 20 -16z m-145 -441 c-2 -10 -4 -20 -5 -23 -1 -3 -2 -7
-2 -10 0 -3 -8 -6 -19 -6 -19 0 -20 1 -2 14 10 7 19 17 19 22 2 16 4 20 8 20
2 0 3 -8 1 -17z m-40 -73 c3 -5 1 -10 -4 -10 -6 0 -11 5 -11 10 0 6 2 10 4 10
3 0 8 -4 11 -10z m-3401 -45 c-4 -8 -8 -15 -10 -15 -2 0 -4 7 -4 15 0 8 4 15
10 15 5 0 7 -7 4 -15z m-54 -14 c0 -5 -7 -12 -16 -15 -14 -5 -15 -4 -4 9 14
17 20 19 20 6z m120 -55 c0 -9 -30 -14 -35 -6 -4 6 3 10 14 10 12 0 21 -2 21
-4z m3280 -12 c0 -8 -19 -13 -24 -6 -3 5 1 9 9 9 8 0 15 -2 15 -3z m-3266 -45
c-3 -5 -10 -7 -15 -3 -5 3 -7 10 -3 15 3 5 10 7 15 3 5 -3 7 -10 3 -15z m3214
-34 c-3 -3 -9 2 -12 12 -6 14 -5 15 5 6 7 -7 10 -15 7 -18z m-3171 -20 c0 -8
-4 -12 -9 -9 -5 3 -6 10 -3 15 9 13 12 11 12 -6z m223 -281 c0 -8 -19 -13 -24
-6 -3 5 1 9 9 9 8 0 15 -2 15 -3z m2570 -140 c0 -8 -19 -13 -24 -6 -3 5 1 9 9
9 8 0 15 -2 15 -3z m-2323 -79 c0 -8 -4 -12 -9 -9 -5 3 -6 10 -3 15 9 13 12
11 12 -6z m127 -88 c7 -6 6 -7 -4 -4 -8 2 -16 12 -17 23 -2 13 -1 15 4 4 3 -8
11 -19 17 -23z m1876 -21 c0 -2 -8 -10 -17 -17 -16 -13 -17 -12 -4 4 13 16 21
21 21 13z m-1756 -44 c3 -5 -1 -9 -9 -9 -8 0 -15 4 -15 9 0 4 4 8 9 8 6 0 12
-4 15 -8z m1626 -41 c0 -6 -4 -12 -8 -15 -5 -3 -9 1 -9 9 0 8 4 15 9 15 4 0 8
-4 8 -9z m-1436 -53 c-9 -14 -23 2 -17 18 4 12 8 13 14 3 4 -7 5 -17 3 -21z
m28 -10 c-7 -7 -12 -8 -12 -2 0 14 12 26 19 19 2 -3 -1 -11 -7 -17z m1208 -7
c0 -5 -7 -12 -16 -15 -14 -5 -15 -4 -4 9 14 17 20 19 20 6z m-1106 -17 c3 -8
2 -12 -4 -9 -6 3 -10 10 -10 16 0 14 7 11 14 -7z m1021 -32 c-3 -3 -11 0 -18
7 -9 10 -8 11 6 5 10 -3 15 -9 12 -12z m-780 -2 c-3 -5 -12 -10 -18 -10 -7 0
-6 4 3 10 19 12 23 12 15 0z m129 -46 c3 -8 2 -12 -4 -9 -6 3 -10 10 -10 16 0
14 7 11 14 -7z m176 2 c0 -3 -4 -8 -10 -11 -5 -3 -10 -1 -10 4 0 6 5 11 10 11
6 0 10 -2 10 -4z"/>
<path d="M2828 4453 c7 -3 16 -2 19 1 4 3 -2 6 -13 5 -11 0 -14 -3 -6 -6z"/>
<path d="M4459 4408 c-5 -18 -6 -38 -1 -34 7 8 12 36 6 36 -2 0 -4 -1 -5 -2z"/>
<path d="M3140 4371 c0 -6 4 -13 10 -16 6 -3 7 1 4 9 -7 18 -14 21 -14 7z"/>
<path d="M3175 4361 c-3 -5 -2 -12 3 -15 5 -3 9 1 9 9 0 17 -3 19 -12 6z"/>
<path d="M4076 4217 c3 -10 9 -15 12 -12 3 3 0 11 -7 18 -10 9 -11 8 -5 -6z"/>
<path d="M3535 4180 c3 -5 8 -10 11 -10 2 0 4 5 4 10 0 6 -5 10 -11 10 -5 0
-7 -4 -4 -10z"/>
<path d="M3566 4181 c-3 -5 1 -14 9 -21 10 -9 15 -9 15 -1 0 6 -5 11 -11 11
-5 0 -7 5 -4 10 3 6 4 10 1 10 -3 0 -7 -4 -10 -9z"/>
<path d="M4275 4140 c3 -5 8 -10 11 -10 2 0 4 5 4 10 0 6 -5 10 -11 10 -5 0
-7 -4 -4 -10z"/>
<path d="M3765 4040 c-3 -5 -1 -10 4 -10 6 0 11 5 11 10 0 6 -2 10 -4 10 -3 0
-8 -4 -11 -10z"/>
<path d="M4426 3994 c-3 -9 -3 -21 0 -27 3 -7 -2 -3 -10 7 -14 18 -20 15 -17
-6 0 -4 -5 -5 -13 -2 -9 4 -13 -2 -11 -20 2 -14 -4 -31 -13 -38 -12 -10 -14
-10 -8 -1 5 9 2 11 -9 6 -13 -5 -14 -7 -3 -14 7 -5 9 -9 4 -9 -5 0 -4 -6 1
-12 5 -7 8 -23 7 -35 -1 -24 21 -21 44 6 11 14 12 13 3 -5 -6 -12 -7 -25 -3
-29 4 -5 1 -5 -6 0 -11 6 -12 3 -2 -14 11 -22 32 -20 26 2 -1 7 -1 9 1 5 2 -4
10 -5 18 -2 7 3 16 1 20 -5 3 -7 0 -8 -9 -5 -11 4 -16 0 -16 -12 0 -12 3 -15
8 -8 4 6 15 10 24 9 10 -2 15 2 12 9 -3 7 2 13 10 13 8 0 13 -4 11 -8 -3 -4 1
-9 9 -12 11 -5 13 0 6 24 -5 17 -5 31 1 34 5 4 9 5 10 3 0 -2 2 -11 4 -22 2
-10 9 -24 16 -30 9 -8 9 -6 1 10 -6 11 -7 26 -3 33 5 7 11 9 13 5 3 -5 4 -4 2
2 -1 6 3 17 9 24 9 10 9 11 0 6 -8 -4 -13 -1 -13 8 0 8 6 17 13 19 9 4 9 6 -1
6 -7 1 -11 5 -8 10 3 4 -3 19 -14 31 -11 13 -20 19 -20 15 0 -5 7 -16 16 -26
12 -13 12 -19 3 -25 -8 -4 -10 -3 -5 5 4 6 0 14 -8 17 -9 3 -16 16 -16 28 0
21 -20 61 -20 40 0 -7 -13 -14 -29 -16 -21 -3 -28 -1 -24 9 3 7 3 13 0 13 -3
0 -8 -7 -11 -16z m-16 -54 c0 -5 -2 -10 -4 -10 -3 0 -8 5 -11 10 -3 6 -1 10 4
10 6 0 11 -4 11 -10z m-35 -60 c3 -6 -1 -7 -9 -4 -18 7 -21 14 -7 14 6 0 13
-4 16 -10z"/>
<path d="M4350 3941 c0 -6 4 -12 8 -15 5 -3 9 1 9 9 0 8 -4 15 -9 15 -4 0 -8
-4 -8 -9z"/>
<path d="M3935 3860 c3 -5 8 -10 11 -10 2 0 4 5 4 10 0 6 -5 10 -11 10 -5 0
-7 -4 -4 -10z"/>
<path d="M1120 3810 c-9 -6 -10 -10 -3 -10 6 0 15 5 18 10 8 12 4 12 -15 0z"/>
<path d="M630 3730 c0 -12 -4 -19 -9 -16 -12 8 -41 -4 -41 -16 0 -7 5 -6 14 1
10 9 15 8 19 -3 4 -10 1 -13 -9 -9 -8 3 -14 -1 -14 -8 -1 -9 -6 -7 -17 6 l-16
20 8 -20 c10 -30 13 -64 5 -62 -12 3 -9 -16 8 -41 10 -16 22 -22 35 -18 15 4
17 2 8 -7 -13 -13 -15 -31 -2 -22 5 3 13 0 16 -5 5 -8 13 -6 26 6 16 14 21 15
36 3 9 -8 14 -9 10 -3 -10 17 18 25 34 11 7 -7 5 -2 -4 10 -14 16 -15 23 -6
29 8 4 10 3 5 -4 -11 -18 10 -14 25 5 8 10 9 14 2 10 -6 -4 -15 -3 -18 3 -4 6
-3 10 2 9 20 -3 34 2 28 11 -4 6 -10 8 -14 6 -3 -3 -7 4 -7 14 0 14 3 16 13 8
10 -8 12 -7 7 6 -3 9 -10 16 -15 16 -5 0 -9 7 -9 16 0 9 5 12 13 8 7 -4 9 -3
4 2 -5 5 -14 9 -20 9 -7 1 -11 7 -9 14 1 7 -2 10 -8 6 -8 -5 -7 -12 2 -23 12
-15 11 -16 -5 -3 -10 8 -16 19 -14 25 3 6 -6 12 -19 12 -13 1 -22 -1 -20 -5 3
-4 -4 -7 -14 -7 -10 0 -17 4 -14 7 2 4 0 10 -6 14 -5 3 -10 -3 -10 -15z m-40
-132 c0 -6 -6 -5 -15 2 -8 7 -15 14 -15 16 0 2 7 1 15 -2 8 -4 15 -11 15 -16z
m25 -18 c-3 -5 -12 -10 -18 -10 -7 0 -6 4 3 10 19 12 23 12 15 0z m35 -40 c0
-5 -2 -10 -4 -10 -3 0 -8 5 -11 10 -3 6 -1 10 4 10 6 0 11 -4 11 -10z"/>
<path d="M1060 3730 c-9 -6 -10 -10 -3 -10 6 0 15 5 18 10 8 12 4 12 -15 0z"/>
<path d="M553 3655 c0 -8 4 -12 9 -9 5 3 6 10 3 15 -9 13 -12 11 -12 -6z"/>
<path d="M675 3530 c3 -5 8 -10 11 -10 2 0 4 5 4 10 0 6 -5 10 -11 10 -5 0 -7
-4 -4 -10z"/>
<path d="M4236 3487 c3 -10 9 -15 12 -12 3 3 0 11 -7 18 -10 9 -11 8 -5 -6z"/>
<path d="M862 3435 c-7 -8 -9 -15 -4 -15 5 0 15 7 22 15 16 19 -1 19 -18 0z"/>
<path d="M770 3235 c0 -9 5 -15 11 -13 6 2 11 8 11 13 0 5 -5 11 -11 13 -6 2
-11 -4 -11 -13z"/>
<path d="M750 3181 c0 -6 4 -12 8 -15 5 -3 9 1 9 9 0 8 -4 15 -9 15 -4 0 -8
-4 -8 -9z"/>
<path d="M4370 3120 c6 -11 13 -20 16 -20 2 0 0 9 -6 20 -6 11 -13 20 -16 20
-2 0 0 -9 6 -20z"/>
<path d="M740 3120 c0 -5 5 -10 10 -10 6 0 10 5 10 10 0 6 -4 10 -10 10 -5 0
-10 -4 -10 -10z"/>
<path d="M4395 3040 c3 -5 8 -10 11 -10 2 0 4 5 4 10 0 6 -5 10 -11 10 -5 0
-7 -4 -4 -10z"/>
<path d="M701 2987 c-8 -10 -7 -14 2 -14 8 0 14 6 14 14 0 7 -1 13 -2 13 -2 0
-8 -6 -14 -13z"/>
<path d="M685 2909 c-4 -6 -5 -12 -2 -15 2 -3 7 2 10 11 7 17 1 20 -8 4z"/>
<path d="M4450 2760 c0 -5 5 -10 11 -10 5 0 7 5 4 10 -3 6 -8 10 -11 10 -2 0
-4 -4 -4 -10z"/>
<path d="M4407 2209 c7 -7 15 -10 18 -7 3 3 -2 9 -12 12 -14 6 -15 5 -6 -5z"/>
<path d="M4346 1918 c3 -5 10 -6 15 -3 13 9 11 12 -6 12 -8 0 -12 -4 -9 -9z"/>
<path d="M4040 1380 c-9 -6 -10 -10 -3 -10 6 0 15 5 18 10 8 12 4 12 -15 0z"/>
<path d="M4136 1339 c5 -9 1 -11 -15 -6 -18 4 -20 3 -10 -9 6 -8 10 -14 8 -15
-2 0 -13 -3 -24 -5 -11 -3 -25 -6 -32 -6 -7 -1 -10 -5 -7 -10 3 -4 -2 -11 -11
-14 -14 -6 -14 -8 2 -19 17 -13 17 -14 -2 -35 -18 -20 -19 -23 -3 -34 14 -10
15 -15 5 -26 -10 -12 -9 -12 4 -2 9 6 18 11 20 9 3 -1 -3 5 -13 15 -22 20 -22
25 -3 25 8 0 12 -4 10 -8 -3 -3 2 -12 10 -19 8 -7 15 -21 15 -31 0 -11 5 -19
11 -19 5 0 7 5 3 11 -4 8 0 8 15 0 11 -7 21 -17 21 -24 0 -8 3 -8 9 2 5 8 14
10 22 6 8 -6 11 -4 7 7 -4 8 2 20 13 26 12 8 19 8 19 2 0 -5 -4 -10 -9 -10 -6
0 -9 -9 -8 -19 0 -11 5 -17 9 -15 5 3 6 9 3 14 -3 5 7 16 22 25 15 9 20 14 11
11 -9 -3 -19 2 -22 10 -4 11 -1 14 13 9 26 -8 36 11 14 24 -14 8 -15 11 -3 12
8 1 20 1 25 -1 6 -1 4 4 -2 11 -10 10 -10 16 0 28 11 14 10 14 -5 2 -10 -7
-15 -17 -12 -22 3 -5 1 -9 -4 -9 -5 0 -9 12 -9 27 0 15 -6 29 -12 31 -6 2 -9
7 -6 12 3 4 -3 18 -13 30 -15 18 -19 19 -19 7 0 -9 4 -14 9 -11 4 3 8 1 8 -5
0 -5 -9 -9 -19 -8 -11 0 -18 4 -16 7 2 3 -5 12 -17 19 -15 9 -18 10 -12 0z
m-56 -58 c0 -5 -7 -12 -16 -15 -14 -5 -15 -4 -4 9 14 17 20 19 20 6z m40 3 c0
-8 -19 -13 -24 -6 -3 5 1 9 9 9 8 0 15 -2 15 -3z"/>
<path d="M4056 1321 c9 -9 34 -9 34 -1 0 5 -9 8 -20 7 -10 -1 -17 -3 -14 -6z"/>
<path d="M4035 1240 c-3 -5 -1 -10 4 -10 6 0 11 5 11 10 0 6 -2 10 -4 10 -3 0
-8 -4 -11 -10z"/>
<path d="M3450 879 c0 -5 5 -7 10 -4 6 3 10 8 10 11 0 2 -4 4 -10 4 -5 0 -10
-5 -10 -11z"/>
<path d="M1313 778 c-6 -7 -13 -20 -16 -28 -4 -12 -6 -11 -6 3 -1 9 -8 17 -17
17 -11 0 -14 -6 -10 -17 5 -16 5 -16 -6 -2 -16 19 -45 21 -45 2 0 -8 4 -9 12
-3 7 6 11 3 12 -10 1 -11 -2 -22 -8 -25 -5 -3 -6 1 -3 9 7 17 -12 16 -41 -2
-19 -12 -19 -13 4 -6 16 4 21 3 17 -5 -4 -6 -15 -11 -24 -11 -13 0 -14 -2 -3
-9 11 -7 11 -9 0 -14 -10 -4 -10 -6 -1 -6 6 -1 12 -6 12 -12 0 -5 -5 -7 -10
-4 -6 4 -5 -5 2 -19 11 -26 28 -35 28 -16 0 6 5 10 11 10 8 0 9 -4 0 -13 -15
-19 -1 -30 17 -14 13 11 14 9 1 -10 -10 -17 -11 -25 -2 -34 8 -8 13 -7 18 2 6
8 4 10 -5 4 -9 -5 -11 -4 -6 4 4 6 11 9 16 6 4 -3 11 1 14 7 3 7 3 3 0 -9 -5
-22 8 -26 33 -10 6 4 14 1 16 -5 3 -8 6 -6 6 5 1 20 -10 22 -27 5 -9 -9 -12
-9 -12 -1 0 15 43 29 48 15 2 -6 13 0 25 11 19 19 20 24 7 35 -8 7 -10 12 -5
11 25 -3 28 3 6 15 -20 11 -21 14 -7 19 10 4 15 3 11 -3 -3 -6 -1 -10 4 -10 6
0 11 7 11 15 0 14 -12 20 -33 16 -5 -1 -6 3 -2 9 3 6 10 8 15 5 5 -3 12 0 16
6 4 8 3 9 -4 5 -11 -7 -17 7 -12 29 1 5 -2 6 -7 2 -4 -5 -8 -13 -8 -19 0 -6
-8 -12 -17 -14 -16 -2 -16 0 -2 21 11 18 12 25 3 31 -8 4 -9 3 -5 -4 4 -7 1
-12 -8 -12 -19 0 -21 11 -4 28 7 7 9 12 6 12 -3 0 -10 -6 -15 -12z m57 -163
c0 -2 -6 -8 -13 -14 -10 -8 -14 -7 -14 2 0 8 6 14 14 14 7 0 13 -1 13 -2z"/>
<path d="M2154 709 c-4 -7 -3 -9 4 -5 5 3 12 0 15 -6 2 -7 7 -10 11 -7 4 3 0
12 -8 18 -11 9 -16 9 -22 0z"/>
<path d="M2316 663 c-6 -14 -5 -15 5 -6 7 7 10 15 7 18 -3 3 -9 -2 -12 -12z"/>
<path d="M1197 589 c7 -7 15 -10 18 -7 3 3 -2 9 -12 12 -14 6 -15 5 -6 -5z"/>
</g>
</svg>
